<?xml version="1.0" encoding="UTF-8"?>
<svg version="1.1" xmlns="http://www.w3.org/2000/svg" width="50" height="50">
<path d="M0 0 C5.8452517 4.04671272 9.6071144 8.92944739 11 16 C11.69914925 23.90576455 10.52914472 29.97210286 6.3125 36.6875 C0.80516894 42.19483106 -4.96063975 45.10115872 -12.75 45.25 C-20.69768514 45.14481005 -26.33421247 42.66578753 -32 37 C-36.73324697 30.27062332 -37.66741686 24.05754167 -37 16 C-35.61105596 9.78802979 -32.56212223 4.50549271 -27.26171875 0.77734375 C-18.74895462 -4.30844039 -8.80073287 -4.72280708 0 0 Z M-23 2 C-23 2.33 -23 2.66 -23 3 C-19.04 3 -15.08 3 -11 3 C-10.649375 4.19625 -10.29875 5.3925 -9.9375 6.625 C-8.44785063 11.08682059 -6.56033799 15.28000461 -4.5 19.5 C-4.20343506 20.12342285 -3.90687012 20.7468457 -3.60131836 21.38916016 C-2.81282975 22.96788231 -1.91279434 24.48974028 -1 26 C-0.01 26.33 0.98 26.66 2 27 C2.33 29.31 2.66 31.62 3 34 C6.13220429 31.4372874 7.04560617 28.89099023 8 25 C8.64191185 18.47389619 7.51964305 13.58394982 4 8 C-0.12767498 3.31264028 -4.60670119 0.40662323 -10.94140625 -0.1796875 C-15.34720124 -0.33017006 -18.86340339 0.34536136 -23 2 Z M-27.4375 5.3203125 C-32.1763269 10.79365757 -34.48046914 15.35974565 -34.3359375 22.83203125 C-33.71099007 26.86512225 -31.86438417 30.40440196 -30 34 C-27.29670689 30.70409309 -25.58099915 27.24386481 -23.8125 23.375 C-23.28269531 22.22773438 -22.75289062 21.08046875 -22.20703125 19.8984375 C-20.87185377 17.21557043 -20.87185377 17.21557043 -21 15 C-19.68 15.33 -18.36 15.66 -17 16 C-17.33 14.68 -17.66 13.36 -18 12 C-19.98 12 -21.96 12 -24 12 C-24 9.36 -24 6.72 -24 4 C-26.07980822 3.7745169 -26.07980822 3.7745169 -27.4375 5.3203125 Z M-21 6 C-21 6.99 -21 7.98 -21 9 C-19.35 9 -17.7 9 -16 9 C-15.75507813 9.79664063 -15.51015625 10.59328125 -15.2578125 11.4140625 C-13.70119498 15.85187271 -11.80863629 20.09093656 -9.875 24.375 C-9.50246094 25.20644531 -9.12992188 26.03789062 -8.74609375 26.89453125 C-7.83326454 28.93084255 -6.91784402 30.96594539 -6 33 C-4.02 33 -2.04 33 0 33 C0 31.68 0 30.36 0 29 C-0.99 28.67 -1.98 28.34 -3 28 C-4.24267578 25.97460937 -4.24267578 25.97460937 -5.4453125 23.34375 C-5.88230469 22.40402344 -6.31929687 21.46429688 -6.76953125 20.49609375 C-7.21683594 19.50738281 -7.66414063 18.51867187 -8.125 17.5 C-9.02183798 15.55134638 -9.92019406 13.60339049 -10.8203125 11.65625 C-11.21492676 10.78806641 -11.60954102 9.91988281 -12.01611328 9.02539062 C-12.83762221 7.05335674 -12.83762221 7.05335674 -14 6 C-16.33297433 5.95907063 -18.66705225 5.95758277 -21 6 Z M-20 21 C-20.83819158 22.62249941 -21.6704116 24.24808497 -22.5 25.875 C-22.9640625 26.77992187 -23.428125 27.68484375 -23.90625 28.6171875 C-25.13905589 30.86596859 -25.13905589 30.86596859 -25 33 C-22.58414426 32.96906827 -22.58414426 32.96906827 -20 32 C-17.82801458 28.81442139 -16.89199897 26.99360948 -17.3125 23.125 C-17.539375 22.42375 -17.76625 21.7225 -18 21 C-18.66 21 -19.32 21 -20 21 Z M-14 23 C-14.27714844 23.78246094 -14.55429687 24.56492187 -14.83984375 25.37109375 C-15.20207031 26.38300781 -15.56429688 27.39492188 -15.9375 28.4375 C-16.29714844 29.44683594 -16.65679687 30.45617188 -17.02734375 31.49609375 C-18 34 -18 34 -19 35 C-21.65463121 35.45459858 -24.32189138 35.70243238 -27 36 C-22.94386424 40.68015665 -19.26649993 41.77706558 -13.1875 42.375 C-8.3654679 42.26329269 -4.1053825 40.46143283 0 38 C0.33 37.34 0.66 36.68 1 36 C-0.794375 36.12375 -0.794375 36.12375 -2.625 36.25 C-4.8203125 36.01953125 -4.8203125 36.01953125 -7 35 C-9.56926706 31.23209999 -11.3165519 27.22775034 -13 23 C-13.33 23 -13.66 23 -14 23 Z " fill="#F605E7" transform="translate(38,4)"/>
</svg>
